<svg width="57" height="7" viewBox="0 0 57 7" fill="none" xmlns="http://www.w3.org/2000/svg">
<path d="M53.5 0L54.2858 2.41844H56.8287L54.7714 3.91312L55.5572 6.33156L53.5 4.83688L51.4428 6.33156L52.2286 3.91312L50.1713 2.41844H52.7142L53.5 0Z" fill="#F9F010"/>
<path d="M28.5 0L29.2858 2.41844H31.8287L29.7714 3.91312L30.5572 6.33156L28.5 4.83688L26.4428 6.33156L27.2286 3.91312L25.1713 2.41844H27.7142L28.5 0Z" fill="#F9F010"/>
<path d="M40.5 0L41.2858 2.41844H43.8287L41.7714 3.91312L42.5572 6.33156L40.5 4.83688L38.4428 6.33156L39.2286 3.91312L37.1713 2.41844H39.7142L40.5 0Z" fill="#F9F010"/>
<path d="M15.5 0L16.2858 2.41844H18.8287L16.7714 3.91312L17.5572 6.33156L15.5 4.83688L13.4428 6.33156L14.2286 3.91312L12.1713 2.41844H14.7142L15.5 0Z" fill="#F9F010"/>
<path d="M3.5 0L4.2858 2.41844H6.8287L4.77145 3.91312L5.55725 6.33156L3.5 4.83688L1.44275 6.33156L2.22855 3.91312L0.171302 2.41844H2.7142L3.5 0Z" fill="#F9F010"/>
</svg>
