<?xml version="1.0" standalone="no"?>
<!DOCTYPE svg PUBLIC "-//W3C//DTD SVG 20010904//EN"
 "http://www.w3.org/TR/2001/REC-SVG-20010904/DTD/svg10.dtd">
<svg version="1.0" xmlns="http://www.w3.org/2000/svg"
 width="171.000000pt" height="148.000000pt" viewBox="0 0 171.000000 148.000000"
 preserveAspectRatio="xMidYMid meet">

<g transform="translate(0.000000,148.000000) scale(0.100000,-0.100000)"
fill="#000000" stroke="none">
<path d="M0 740 l0 -740 50 0 50 0 0 740 0 740 -50 0 -50 0 0 -740z"/>
<path d="M1620 740 l0 -740 45 0 45 0 0 740 0 740 -45 0 -45 0 0 -740z"/>
<path d="M368 755 c-4 -17 -1 -25 9 -25 10 0 12 -6 8 -20 -4 -12 -2 -20 5 -20
6 0 9 -4 6 -9 -3 -5 0 -14 8 -20 7 -6 16 -25 19 -41 9 -44 93 -105 224 -163
29 -13 29 -12 37 43 8 61 52 104 133 131 66 22 209 31 251 16 13 -5 22 -4 22
2 0 5 -8 12 -17 14 -15 4 -14 5 3 6 18 1 21 6 18 36 -2 25 2 35 12 35 8 0 14
4 14 10 0 9 -45 5 -80 -7 -39 -13 -302 -22 -385 -12 -82 9 -226 33 -266 45
-12 3 -18 -3 -21 -21z"/>
<path d="M1139 623 c-14 -3 -16 -15 -12 -71 6 -105 5 -107 -90 -136 -45 -13
-93 -26 -107 -28 -14 -2 -23 -7 -22 -12 5 -13 -18 -25 -42 -21 -12 2 -33 6
-47 9 -14 2 -45 13 -68 24 -45 22 -52 17 -18 -13 43 -39 57 -47 94 -56 42 -9
152 9 200 34 25 13 36 13 93 0 36 -9 73 -20 82 -24 10 -5 26 -9 35 -9 14 0 13
3 -5 16 -19 13 -21 18 -10 31 7 8 23 19 36 24 14 5 22 15 19 23 -3 7 -1 19 4
27 7 11 9 11 9 -3 0 -22 26 -24 34 -3 3 8 12 15 19 15 19 0 28 60 16 104 -15
53 -26 51 -33 -6 -7 -49 -18 -67 -86 -143 -30 -34 -100 -65 -100 -44 0 5 5 9
10 9 6 0 10 5 10 11 0 6 -9 8 -20 4 -27 -9 -25 7 5 35 14 13 25 29 25 37 0 20
17 16 34 -9 9 -12 16 -17 16 -10 0 6 6 12 13 12 7 0 21 14 30 30 10 17 13 30
8 30 -6 0 -11 7 -11 15 0 8 -9 20 -20 27 -11 7 -20 24 -20 38 -1 25 -1 25 -17
5 -14 -18 -15 -18 -9 -2 3 11 3 24 -1 30 -4 7 -10 2 -14 -13 -7 -24 -7 -24 -8
-2 -1 22 -3 23 -32 15z m-364 -263 c3 -6 -1 -7 -9 -4 -18 7 -21 14 -7 14 6 0
13 -4 16 -10z"/>
<path d="M734 555 c-9 -14 -15 -27 -13 -30 3 -2 12 10 21 26 21 36 15 39 -8 4z"/>
<path d="M1424 415 c-22 -29 -36 -33 -27 -7 4 13 1 12 -16 -6 -12 -12 -27 -20
-32 -16 -6 3 -5 -3 3 -15 7 -12 18 -21 24 -21 13 0 59 49 67 73 9 24 3 21 -19
-8z"/>
<path d="M1292 378 c-17 -17 -15 -28 5 -21 11 4 14 3 9 -5 -4 -7 -2 -12 3 -12
6 0 11 7 11 15 0 8 0 18 1 22 1 13 -16 14 -29 1z"/>
</g>
</svg>
